<?xml version="1.0" encoding="UTF-8"?>
<svg version="1.1" xmlns="http://www.w3.org/2000/svg" width="298" height="300">
<path d="M0 0 C98.34 0 196.68 0 298 0 C298 99 298 198 298 300 C199.66 300 101.32 300 0 300 C0 201 0 102 0 0 Z " fill="#17469E" transform="translate(0,0)"/>
<path d="M0 0 C2.57515391 1.96202203 5.12584866 3.94187537 7.625 6 C6.09791037 9.43595166 4.02572955 12.11912454 1.625 15 C-2.22034619 13.18632198 -5.57637355 10.85991406 -9.05859375 8.4375 C-15.59672716 4.38010861 -21.83374098 4.25225727 -29.375 5 C-35.27619654 6.82588856 -40.647309 10.51152532 -44.17578125 15.59375 C-48.46826928 23.84597504 -50.04103809 30.67963329 -47.63671875 39.80078125 C-44.5806077 48.28997861 -39.13539488 52.77886471 -31.375 57 C-23.1967046 59.72609847 -15.61851666 58.02314728 -7.9765625 54.46875 C-0.21308581 50.08576616 0.50861051 44.57007111 3.625 36 C-4.955 36 -13.535 36 -22.375 36 C-22.375 32.7 -22.375 29.4 -22.375 26 C-10.165 26 2.045 26 14.625 26 C14.625 38.48272928 13.88057762 48.2632241 5.1875 57.625 C3.9190625 58.800625 3.9190625 58.800625 2.625 60 C1.903125 60.680625 1.18125 61.36125 0.4375 62.0625 C-9.32379844 68.78695004 -20.49405087 70.29083563 -32.0625 68.609375 C-42.23764531 66.06558867 -50.4561111 59.31816016 -56.00390625 50.55078125 C-61.0215511 41.21596049 -62.08949615 30.49071533 -59.71875 20.1328125 C-55.66527007 8.91585511 -47.67685877 1.38500435 -37.296875 -4.09765625 C-25.13361698 -9.08830601 -10.94229347 -6.48432206 0 0 Z " fill="#F6F9FC" transform="translate(216.375,207)"/>
<path d="M0 0 C7.24379683 4.05740827 12.31982011 10.04912368 14.94140625 17.9375 C15.89678181 25.79157586 15.18476552 33.15040654 10.94140625 39.9375 C5.21752059 46.65734176 -0.83653281 50.06002987 -9.49609375 51.28125 C-17.22734118 51.76445296 -23.09689961 49.00557892 -29.13671875 44.328125 C-34.50837584 39.40786767 -36.69606898 34.81198352 -37.37109375 27.59765625 C-37.61067878 20.58230696 -37.60403953 14.54677352 -33.05859375 8.9375 C-23.97516897 -0.55264529 -12.82311722 -4.45451837 0 0 Z " fill="#F5F8FC" transform="translate(274.05859375,225.0625)"/>
<path d="M0 0 C3.3 0 6.6 0 10 0 C10.09932908 7.36486944 10.17168728 14.72934363 10.21972656 22.09472656 C10.23976603 24.59707436 10.26700522 27.09937578 10.30175781 29.6015625 C10.3506124 33.21105437 10.37304645 36.81992379 10.390625 40.4296875 C10.41127014 41.53738495 10.43191528 42.6450824 10.45318604 43.78634644 C10.45559098 52.22683853 8.72630091 58.82674839 4.09375 65.91796875 C-1.32517328 71.30656224 -8.51892333 74.35338294 -16.125 74.6875 C-23.84891944 74.24266694 -30.19159696 71.33491412 -35.4375 65.625 C-40.03274976 60.05583163 -41.54624976 54.15757243 -41.4375 47.0625 C-41.42847656 46.35810791 -41.41945313 45.65371582 -41.41015625 44.92797852 C-41.18046906 38.04294555 -39.85975175 33.93593366 -35.09375 29.04296875 C-29.18754627 23.63262167 -25.23148036 21.65031431 -17.125 21.6875 C-16.43019531 21.67138672 -15.73539063 21.65527344 -15.01953125 21.63867188 C-10.26304377 21.63419307 -7.07327044 22.5802986 -3 25 C-3 28.63 -3 32.26 -3 36 C-3.9075 35.505 -4.815 35.01 -5.75 34.5 C-10.99334103 32.27878832 -16.41533759 32.1634625 -22 33 C-25.98025439 34.92519022 -28.35504418 37.93901532 -30 42 C-30.68112406 47.17179082 -30.78675915 52.30191278 -28.3125 57 C-25.48370617 60.66978659 -23.59056224 62.65938904 -18.890625 63.27734375 C-13.86606036 63.48810569 -10.27823234 62.85215489 -6 60 C-0.1229111 54.1229111 -0.67201437 45.31534404 -0.5859375 37.59765625 C-0.56657135 36.51995468 -0.5472052 35.44225311 -0.5272522 34.33189392 C-0.46774245 30.9088417 -0.42118544 27.48575534 -0.375 24.0625 C-0.33679392 21.73370975 -0.29774067 19.40493324 -0.2578125 17.07617188 C-0.16206436 11.38422687 -0.07792782 5.69221574 0 0 Z " fill="#F6F9FC" transform="translate(122,202)"/>
<path d="M0 0 C6.09370596 3.68161402 9.51050021 8.24388554 12 14.8125 C12.47925037 17.64905789 12.47243568 20.37984187 12.390625 23.25 C12.38496521 24.01554199 12.37930542 24.78108398 12.37347412 25.56982422 C12.35130835 27.98472021 12.30115539 30.39806223 12.25 32.8125 C12.22990915 34.46221796 12.21166294 36.11195948 12.1953125 37.76171875 C12.15150943 41.77923305 12.08262602 45.79560426 12 49.8125 C8.37 49.8125 4.74 49.8125 1 49.8125 C0.99589111 48.77843018 0.99178223 47.74436035 0.98754883 46.67895508 C0.96572133 42.82998302 0.91139574 38.98202802 0.84741211 35.13354492 C0.82426334 33.47023288 0.80984369 31.8067749 0.80444336 30.14331055 C0.7951302 27.74696249 0.75409449 25.35289941 0.70703125 22.95703125 C0.7109639 22.2172554 0.71489655 21.47747955 0.71894836 20.71528625 C0.60707516 16.72659511 0.14502547 14.98913865 -2.41918945 11.8659668 C-5.16750344 9.67922297 -6.30499115 8.90727393 -9.75 8.4375 C-14.2753858 8.9596599 -15.7671103 10.65479378 -19 13.8125 C-20.5274639 16.8674278 -20.23991832 20.0888314 -20.31640625 23.4453125 C-20.33718735 24.19714813 -20.35796844 24.94898376 -20.37937927 25.72360229 C-20.44482705 28.12814085 -20.50373738 30.53278967 -20.5625 32.9375 C-20.60568977 34.56641771 -20.64930421 36.19532422 -20.69335938 37.82421875 C-20.80050351 41.82019915 -20.90178433 45.81629059 -21 49.8125 C-24.3 49.8125 -27.6 49.8125 -31 49.8125 C-31.12432113 44.68970429 -31.2146756 39.5678014 -31.2746582 34.44384766 C-31.29968233 32.70378304 -31.33371294 30.96382227 -31.37719727 29.22412109 C-31.4383892 26.71165245 -31.46632959 24.2005822 -31.48828125 21.6875 C-31.51408768 20.91946045 -31.5398941 20.1514209 -31.56648254 19.36010742 C-31.5698744 12.71243655 -29.11211071 7.95933649 -24.45063782 3.24584961 C-17.99484015 -2.37087754 -7.97702019 -3.12374463 0 0 Z " fill="#F3F7FB" transform="translate(63,225.1875)"/>
<path d="M0 0 C4.95520521 2.57289501 8.49116963 5.98233926 11 11 C11.78893565 17.69468252 11.47401513 22.89216838 7.40625 28.40625 C4.72649406 31.44330673 2.73301827 32.77028785 -1.328125 33.30859375 C-7.05594388 33.59155486 -10.60508357 32.97635296 -15 29 C-18.99327584 25.00672416 -19.35039038 21.44605776 -19.5625 16 C-19.3323862 8.46972434 -19.3323862 8.46972434 -16.875 5.3125 C-11.53209394 1.01494513 -6.8684464 -1.23632035 0 0 Z " fill="#19489F" transform="translate(267,233)"/>
<path d="M0 0 C3.63 0 7.26 0 11 0 C11 24.09 11 48.18 11 73 C7.37 73 3.74 73 0 73 C0 48.91 0 24.82 0 0 Z " fill="#F5F8FC" transform="translate(15,202)"/>
<path d="M0 0 C3.3 0 6.6 0 10 0 C10 16.5 10 33 10 50 C6.7 50 3.4 50 0 50 C0 33.5 0 17 0 0 Z " fill="#FAFCFE" transform="translate(139,225)"/>
<path d="M0 0 C2 2 2 2 2.3125 4.9375 C2 8 2 8 0.875 9.875 C-1.88090884 11.52854531 -3.85075452 11.39365568 -7 11 C-8.875 9.875 -8.875 9.875 -10 8 C-10.39310741 4.85514075 -10.47555213 2.86718329 -8.9375 0.0625 C-5.81651045 -1.6490104 -3.35466116 -0.79291991 0 0 Z " fill="#F5F5F8" transform="translate(148,209)"/>
<path d="M0 0 C0.66 0 1.32 0 2 0 C2 2.97 2 5.94 2 9 C0.68 9 -0.64 9 -2 9 C-2.66 8.34 -3.32 7.68 -4 7 C-4.66 7.66 -5.32 8.32 -6 9 C-6 6.36 -6 3.72 -6 1 C-5.34 1 -4.68 1 -4 1 C-3.34 1.99 -2.68 2.98 -2 4 C-1.34 2.68 -0.68 1.36 0 0 Z " fill="#BAC8E2" transform="translate(286,213)"/>
<path d="M0 0 C1.2065625 0.0309375 1.2065625 0.0309375 2.4375 0.0625 C3.0625 2.4375 3.0625 2.4375 3.4375 5.0625 C2.7775 5.7225 2.1175 6.3825 1.4375 7.0625 C-1.1875 6.6875 -1.1875 6.6875 -3.5625 6.0625 C-3.605221 4.39638095 -3.60313832 2.72867115 -3.5625 1.0625 C-2.5625 0.0625 -2.5625 0.0625 0 0 Z " fill="#E7EBF3" transform="translate(202.5625,83.9375)"/>
<path d="M0 0 C2.625 0.375 2.625 0.375 5 1 C5.042721 2.66611905 5.04063832 4.33382885 5 6 C4 7 4 7 1.4375 7.0625 C0.2309375 7.0315625 0.2309375 7.0315625 -1 7 C-1.625 4.625 -1.625 4.625 -2 2 C-1.34 1.34 -0.68 0.68 0 0 Z " fill="#EAEDF4" transform="translate(244,63)"/>
<path d="M0 0 C1.32 0 2.64 0 4 0 C4.38133299 1.9914056 4.71325582 3.99279077 5 6 C4 7 4 7 1.4375 7.0625 C0.2309375 7.0315625 0.2309375 7.0315625 -1 7 C-1.625 4.625 -1.625 4.625 -2 2 C-1.34 1.34 -0.68 0.68 0 0 Z " fill="#E7EAF3" transform="translate(221,40)"/>
<path d="M0 0 C1.32 0 2.64 0 4 0 C4.38133299 1.9914056 4.71325582 3.99279077 5 6 C4 7 4 7 1.4375 7.0625 C0.2309375 7.0315625 0.2309375 7.0315625 -1 7 C-1.625 4.625 -1.625 4.625 -2 2 C-1.34 1.34 -0.68 0.68 0 0 Z " fill="#E8EBF3" transform="translate(252,32)"/>
<path d="M0 0 C1.2065625 0.0309375 1.2065625 0.0309375 2.4375 0.0625 C3.0625 2.4375 3.0625 2.4375 3.4375 5.0625 C2.7775 5.7225 2.1175 6.3825 1.4375 7.0625 C-0.6875 6.6875 -0.6875 6.6875 -2.5625 6.0625 C-2.94468767 4.40635343 -3.27645102 2.73792976 -3.5625 1.0625 C-2.5625 0.0625 -2.5625 0.0625 0 0 Z " fill="#E9ECF4" transform="translate(202.5625,106.9375)"/>
<path d="M0 0 C2.125 0.375 2.125 0.375 4 1 C4.38218767 2.65614657 4.71395102 4.32457024 5 6 C4 7 4 7 1.4375 7.0625 C0.2309375 7.0315625 0.2309375 7.0315625 -1 7 C-1.625 4.625 -1.625 4.625 -2 2 C-1.34 1.34 -0.68 0.68 0 0 Z " fill="#EAECF4" transform="translate(201,95)"/>
<path d="M0 0 C1.2065625 0.0309375 1.2065625 0.0309375 2.4375 0.0625 C3.0625 2.4375 3.0625 2.4375 3.4375 5.0625 C2.7775 5.7225 2.1175 6.3825 1.4375 7.0625 C-0.6875 6.6875 -0.6875 6.6875 -2.5625 6.0625 C-2.94468767 4.40635343 -3.27645102 2.73792976 -3.5625 1.0625 C-2.5625 0.0625 -2.5625 0.0625 0 0 Z " fill="#EAEFF5" transform="translate(245.5625,85.9375)"/>
<path d="M0 0 C1.2065625 0.0309375 1.2065625 0.0309375 2.4375 0.0625 C3.0625 2.4375 3.0625 2.4375 3.4375 5.0625 C2.7775 5.7225 2.1175 6.3825 1.4375 7.0625 C-0.6875 6.6875 -0.6875 6.6875 -2.5625 6.0625 C-2.94468767 4.40635343 -3.27645102 2.73792976 -3.5625 1.0625 C-2.5625 0.0625 -2.5625 0.0625 0 0 Z " fill="#ECEFF5" transform="translate(190.5625,83.9375)"/>
<path d="M0 0 C1.2065625 0.0309375 1.2065625 0.0309375 2.4375 0.0625 C3.0625 2.4375 3.0625 2.4375 3.4375 5.0625 C2.7775 5.7225 2.1175 6.3825 1.4375 7.0625 C-0.6875 6.6875 -0.6875 6.6875 -2.5625 6.0625 C-2.94468767 4.40635343 -3.27645102 2.73792976 -3.5625 1.0625 C-2.5625 0.0625 -2.5625 0.0625 0 0 Z " fill="#ECEEF5" transform="translate(179.5625,83.9375)"/>
<path d="M0 0 C1.67542976 0.28604898 3.34385343 0.61781233 5 1 C5.625 2.875 5.625 2.875 6 5 C5.34 5.66 4.68 6.32 4 7 C1.375 6.625 1.375 6.625 -1 6 C-1.042721 4.33388095 -1.04063832 2.66617115 -1 1 C-0.67 0.67 -0.34 0.34 0 0 Z " fill="#EBEDF4" transform="translate(208,76)"/>
<path d="M0 0 C2.125 0.375 2.125 0.375 4 1 C4.38218767 2.65614657 4.71395102 4.32457024 5 6 C4 7 4 7 1.4375 7.0625 C0.2309375 7.0315625 0.2309375 7.0315625 -1 7 C-1.625 4.625 -1.625 4.625 -2 2 C-1.34 1.34 -0.68 0.68 0 0 Z " fill="#ECEEF4" transform="translate(244,74)"/>
<path d="M0 0 C1.67542976 0.28604898 3.34385343 0.61781233 5 1 C5.625 2.875 5.625 2.875 6 5 C5.34 5.66 4.68 6.32 4 7 C1.375 6.625 1.375 6.625 -1 6 C-1.042721 4.33388095 -1.04063832 2.66617115 -1 1 C-0.67 0.67 -0.34 0.34 0 0 Z " fill="#EBEDF4" transform="translate(216,68)"/>
<path d="M0 0 C1.67542976 0.28604898 3.34385343 0.61781233 5 1 C5.625 2.875 5.625 2.875 6 5 C5.34 5.66 4.68 6.32 4 7 C1.375 6.625 1.375 6.625 -1 6 C-1.042721 4.33388095 -1.04063832 2.66617115 -1 1 C-0.67 0.67 -0.34 0.34 0 0 Z " fill="#EBEEF4" transform="translate(224,60)"/>
<path d="M0 0 C1.2065625 0.0309375 1.2065625 0.0309375 2.4375 0.0625 C3.0625 2.4375 3.0625 2.4375 3.4375 5.0625 C2.7775 5.7225 2.1175 6.3825 1.4375 7.0625 C-0.6875 6.6875 -0.6875 6.6875 -2.5625 6.0625 C-2.94468767 4.40635343 -3.27645102 2.73792976 -3.5625 1.0625 C-2.5625 0.0625 -2.5625 0.0625 0 0 Z " fill="#ECEEF5" transform="translate(245.5625,51.9375)"/>
<path d="M0 0 C1.67542976 0.28604898 3.34385343 0.61781233 5 1 C5.625 2.875 5.625 2.875 6 5 C5.34 5.66 4.68 6.32 4 7 C1.375 6.625 1.375 6.625 -1 6 C-1.042721 4.33388095 -1.04063832 2.66617115 -1 1 C-0.67 0.67 -0.34 0.34 0 0 Z " fill="#E9ECF3" transform="translate(232,52)"/>
<path d="M0 0 C2.125 0.375 2.125 0.375 4 1 C4.38218767 2.65614657 4.71395102 4.32457024 5 6 C4 7 4 7 1.4375 7.0625 C0.2309375 7.0315625 0.2309375 7.0315625 -1 7 C-1.625 4.625 -1.625 4.625 -2 2 C-1.34 1.34 -0.68 0.68 0 0 Z " fill="#EBEEF4" transform="translate(244,40)"/>
<path d="M0 0 C2.125 0.375 2.125 0.375 4 1 C4.38218767 2.65614657 4.71395102 4.32457024 5 6 C4 7 4 7 1.4375 7.0625 C0.2309375 7.0315625 0.2309375 7.0315625 -1 7 C-1.625 4.625 -1.625 4.625 -2 2 C-1.34 1.34 -0.68 0.68 0 0 Z " fill="#ECEFF5" transform="translate(210,40)"/>
<path d="M0 0 C1.67542976 0.28604898 3.34385343 0.61781233 5 1 C5 2.65 5 4.3 5 6 C3.34385343 6.38218767 1.67542976 6.71395102 0 7 C-1 6 -1 6 -1.125 3.5 C-1 1 -1 1 0 0 Z " fill="#EEF0F6" transform="translate(232,40)"/>
<path d="M0 0 C1.67542976 0.28604898 3.34385343 0.61781233 5 1 C5 2.65 5 4.3 5 6 C3.34385343 6.38218767 1.67542976 6.71395102 0 7 C-1 6 -1 6 -1.125 3.5 C-1 1 -1 1 0 0 Z " fill="#EDF1F6" transform="translate(198,40)"/>
<path d="M0 0 C1.67542976 0.28604898 3.34385343 0.61781233 5 1 C5 2.65 5 4.3 5 6 C3.34385343 6.38218767 1.67542976 6.71395102 0 7 C-1 6 -1 6 -1.125 3.5 C-1 1 -1 1 0 0 Z " fill="#F2F3F7" transform="translate(260,24)"/>
<path d="M0 0 C1.98 0 3.96 0 6 0 C6 0.66 6 1.32 6 2 C5.34 2 4.68 2 4 2 C4 4.31 4 6.62 4 9 C3.67 9 3.34 9 3 9 C3 6.69 3 4.38 3 2 C2.01 2 1.02 2 0 2 C0 1.34 0 0.68 0 0 Z " fill="#C0CDE5" transform="translate(272,213)"/>
</svg>
